<svg viewBox="0 0 200 200" fill="none" xmlns="http://www.w3.org/2000/svg">
<g id="u:bitcoin">
<g id="Vector">
<path d="M91.36 101.166L85.4023 125.319C92.7565 127.166 115.44 134.532 118.792 120.907C122.296 106.697 98.714 103.022 91.36 101.166ZM99.4862 68.2043L94.0852 90.1099C100.21 91.6541 119.088 97.9504 122.147 85.5573C125.334 72.6294 105.611 69.7479 99.4862 68.2043ZM143.58 85.7538C143.37 89.5905 141.898 93.2502 139.392 96.1637C136.887 99.0772 133.489 101.081 129.728 101.864C132.2 102.87 134.437 104.378 136.298 106.292C138.159 108.206 139.603 110.485 140.54 112.985C141.476 115.485 141.885 118.152 141.739 120.817C141.594 123.483 140.898 126.089 139.696 128.473C133.841 145.394 119.93 146.823 101.43 143.282L96.9404 161.479L86.092 158.744L90.5232 140.791C87.7113 140.085 84.8377 139.335 81.8775 138.523L77.431 156.559L66.5948 153.825L71.0848 135.594C68.5506 134.938 65.9768 134.241 63.3504 133.575L49.233 130.016L54.6187 117.457C54.6187 117.457 62.6119 119.607 62.5039 119.448C63.0014 119.606 63.5255 119.665 64.0457 119.619C64.5659 119.574 65.072 119.426 65.5345 119.183C65.997 118.941 66.4067 118.609 66.74 118.207C67.0732 117.805 67.3234 117.341 67.4758 116.841L79.65 67.4634C79.8063 65.9505 79.3651 64.4365 78.4207 63.2444C77.4763 62.0522 76.1035 61.2763 74.595 61.0822C74.765 60.9668 66.715 59.101 66.715 59.101L69.6013 47.3822L84.5623 51.1603L84.55 51.217C86.7991 51.7822 89.1166 52.3199 91.4775 52.8638L95.9239 34.845L106.766 37.5793L102.41 55.2448C105.321 55.9167 108.25 56.5948 111.102 57.3138L115.428 39.7638L126.277 42.4982L121.833 60.5231C135.53 65.2948 145.548 72.4481 143.58 85.7538Z" fill="#3141A5"/>
<path fill-rule="evenodd" clip-rule="evenodd" d="M142.945 167.651L172.37 174.787L160.387 144.78L165.248 139.352C173.316 126.866 175 115.995 175 100C175 55.8172 144.183 26 100 26C55.8172 26 25 55.8172 25 100C25 144.183 55.8172 175 100 175C114.234 175 123.572 172.291 135.131 165.795L142.945 167.651ZM195 195L144.031 178.512C131.014 185.828 115.994 190 100 190C50.2944 190 10 149.706 10 100C10 50.2944 50.2944 10 100 10C149.706 10 190 50.2944 190 100C190 117.978 184.729 134.725 175.647 148.78L195 195Z" fill="#3141A5"/>
</g>
</g>
</svg>
