<svg viewBox="0 0 170 189" fill="none" xmlns="http://www.w3.org/2000/svg">
<g id="u:flask" clip-path="url(#clip0_2086_3504)">
<path id="Vector" d="M161.596 146.295L113.335 63.5612V18.8889H122.78C125.284 18.8889 127.687 17.8939 129.458 16.1227C131.229 14.3515 132.224 11.9493 132.224 9.44446C132.224 6.93964 131.229 4.5374 129.458 2.76622C127.687 0.995038 125.284 0 122.78 0H47.224C44.7192 0 42.317 0.995038 40.5458 2.76622C38.7746 4.5374 37.7796 6.93964 37.7796 9.44446C37.7796 11.9493 38.7746 14.3515 40.5458 16.1227C42.317 17.8939 44.7192 18.8889 47.224 18.8889H56.6685V63.5612L8.40736 146.295C5.90027 150.599 4.57212 155.488 4.55678 160.469C4.54143 165.45 5.83945 170.347 8.31998 174.666C10.8005 178.985 14.3759 182.574 18.6857 185.072C22.9956 187.569 27.8875 188.885 32.8685 188.889H136.757C141.738 188.885 146.63 187.569 150.94 185.072C155.25 182.574 158.825 178.985 161.306 174.666C163.786 170.347 165.084 165.45 165.069 160.469C165.054 155.488 163.726 150.599 161.218 146.295H161.596ZM74.2351 70.739C75.0681 69.3365 75.5237 67.7421 75.5574 66.1112V18.8889H94.4463V66.1112C94.4635 67.7743 94.9196 69.4033 95.7685 70.8335L103.891 85.0002H66.1129L74.2351 70.739ZM145.257 165.184C144.433 166.611 143.25 167.798 141.825 168.626C140.4 169.455 138.783 169.896 137.135 169.906H33.2463C31.5981 169.896 29.9812 169.455 28.5563 168.626C27.1314 167.798 25.9481 166.611 25.124 165.184C24.2951 163.748 23.8587 162.119 23.8587 160.461C23.8587 158.804 24.2951 157.175 25.124 155.739L55.0629 103.889H115.035L145.257 155.834C146.086 157.269 146.523 158.898 146.523 160.556C146.523 162.214 146.086 163.842 145.257 165.278V165.184ZM66.1129 122.778C64.245 122.778 62.419 123.332 60.8659 124.37C59.3127 125.407 58.1022 126.882 57.3874 128.608C56.6726 130.334 56.4855 132.233 56.85 134.065C57.2144 135.897 58.1139 137.58 59.4347 138.901C60.7555 140.222 62.4384 141.121 64.2704 141.485C66.1025 141.85 68.0014 141.663 69.7272 140.948C71.4529 140.233 72.9279 139.023 73.9657 137.47C75.0035 135.916 75.5574 134.09 75.5574 132.222C75.5574 129.718 74.5623 127.315 72.7912 125.544C71.02 123.773 68.6178 122.778 66.1129 122.778ZM103.891 132.222C102.023 132.222 100.197 132.776 98.6436 133.814C97.0905 134.852 95.88 136.327 95.1652 138.053C94.4503 139.778 94.2633 141.677 94.6277 143.509C94.9921 145.342 95.8916 147.024 97.2125 148.345C98.5333 149.666 100.216 150.566 102.048 150.93C103.88 151.294 105.779 151.107 107.505 150.392C109.231 149.678 110.706 148.467 111.743 146.914C112.781 145.361 113.335 143.535 113.335 141.667C113.335 139.162 112.34 136.76 110.569 134.989C108.798 133.218 106.396 132.222 103.891 132.222Z" fill="#3141A5"/>
</g>
<defs>
<clipPath id="clip0_2086_3504">
<rect width="170" height="188.889" fill="white"/>
</clipPath>
</defs>
</svg>
