<svg viewBox="0 0 200 146" fill="none" xmlns="http://www.w3.org/2000/svg">
<g id="Logo">
<path id="Union" fill-rule="evenodd" clip-rule="evenodd" d="M99.4999 139.837C91.0862 143.267 81.881 145.157 72.2343 145.157C32.321 145.157 -0.0351562 112.801 -0.0351562 72.8876C-0.0351562 32.9743 32.321 0.618164 72.2343 0.618164C81.881 0.618164 91.0862 2.50824 99.4999 5.93826C107.914 2.50824 117.119 0.618164 126.766 0.618164C166.679 0.618164 199.035 32.9743 199.035 72.8876C199.035 112.801 166.679 145.157 126.766 145.157C117.119 145.157 107.914 143.267 99.4999 139.837ZM12.9881 72.8876C12.9881 40.1668 39.5135 13.6414 72.2343 13.6414C76.1928 13.6414 80.0606 14.0296 83.8017 14.7701C66.0221 27.9355 54.4961 49.0655 54.4961 72.8876C54.4961 96.7097 66.0221 117.84 83.8017 131.005C80.0606 131.746 76.1928 132.134 72.2343 132.134C39.5135 132.134 12.9881 105.608 12.9881 72.8876ZM115.198 14.7701C118.939 14.0296 122.807 13.6414 126.766 13.6414C159.486 13.6414 186.012 40.1668 186.012 72.8876C186.012 105.608 159.486 132.134 126.766 132.134C122.807 132.134 118.939 131.746 115.198 131.005C132.978 117.84 144.504 96.7097 144.504 72.8876C144.504 49.0655 132.978 27.9355 115.198 14.7701ZM99.4999 20.2744C118.501 30.1411 131.48 49.9986 131.48 72.8876C131.48 95.7766 118.501 115.634 99.4999 125.501C80.4992 115.634 67.5193 95.7766 67.5193 72.8876C67.5193 49.9986 80.4992 30.1411 99.4999 20.2744Z" fill="#3141A5"/>
</g>
</svg>
