<svg viewBox="0 0 200 202" fill="none" xmlns="http://www.w3.org/2000/svg">
<g id="Frame 39373">
<g id="Subtract">
<path d="M93.7318 114.402C98.1373 115.565 107.766 118.108 109.296 111.957C110.865 105.668 101.527 103.572 96.9706 102.55C96.4614 102.435 96.0119 102.335 95.6441 102.243L92.6792 114.128C92.9813 114.203 93.3354 114.297 93.7318 114.402Z" fill="#3141A5"/>
<path d="M97.886 97.034C101.559 98.0143 109.571 100.152 110.967 94.5616C112.392 88.8431 104.605 87.1193 100.802 86.2774C100.374 86.1827 99.9966 86.0991 99.6884 86.0223L97.0004 96.8022C97.2543 96.8655 97.5522 96.945 97.886 97.034Z" fill="#3141A5"/>
<path fill-rule="evenodd" clip-rule="evenodd" d="M96.767 46.1763C85.4552 44.6316 76.7393 34.9313 76.7393 23.1954C76.7393 10.3849 87.1243 0 99.9347 0C112.745 0 123.13 10.3849 123.13 23.1954C123.13 34.8647 114.513 44.5214 103.295 46.1492V52.5779C106.128 52.7752 108.983 53.2214 111.834 53.9324C124.996 57.2136 135.585 65.5125 142.072 76.2818C144.368 74.2964 146.067 71.9657 147.259 69.8268C146.653 67.9774 146.326 66.0019 146.326 63.95C146.326 53.534 154.769 45.0901 165.185 45.0901C175.601 45.0901 184.045 53.534 184.045 63.95C184.045 74.3659 175.601 82.8098 165.185 82.8098C160.579 82.8098 156.358 81.158 153.082 78.4145C150.933 78.5097 148.278 78.8903 145.174 79.7776C144.826 79.8769 144.485 79.985 144.15 80.1012C149.051 90.1374 150.58 101.889 147.667 113.574C146.852 116.843 145.728 119.953 144.333 122.881C145.824 123.955 148.073 125.54 150.599 127.238C158.277 118.79 171.208 117.099 180.881 123.744C191.44 130.998 194.119 145.439 186.865 155.997C179.61 166.556 165.17 169.235 154.612 161.981C144.993 155.373 141.914 142.802 146.925 132.634L141.099 128.632C132.457 141.829 117.85 150.176 102.001 150.836C102.648 153.467 103.741 155.795 104.901 157.684C106.81 158.061 108.693 158.743 110.482 159.748C119.564 164.848 122.791 176.345 117.691 185.427C112.59 194.509 101.093 197.736 92.0114 192.635C82.9298 187.535 79.7025 176.038 84.8031 166.956C87.059 162.939 90.5661 160.068 94.5621 158.556C95.5315 156.635 96.5 154.134 97.2463 150.993C97.2611 150.93 97.2757 150.868 97.2899 150.805C94.2204 150.637 91.1224 150.177 88.029 149.405C75.5426 146.291 65.3707 138.659 58.8223 128.685L53.0741 132.634C58.0848 142.802 55.0051 155.373 45.387 161.981C34.8283 169.235 20.3882 166.556 13.134 155.997C5.87995 145.439 8.55885 130.998 19.1176 123.744C28.7906 117.099 41.7212 118.79 49.3999 127.238C51.8767 125.573 54.0879 124.016 55.5784 122.944C50.7914 112.974 49.3206 101.339 52.2064 89.7703C53.1119 86.1363 54.3999 82.6983 56.0167 79.4885C53.3662 78.8057 51.0713 78.4987 49.1719 78.4145C45.8965 81.158 41.6755 82.8098 37.0686 82.8098C26.6527 82.8098 18.2088 74.3659 18.2088 63.95C18.2088 53.534 26.6527 45.0901 37.0686 45.0901C47.4846 45.0901 55.9285 53.534 55.9285 63.95C55.9285 66.0019 55.6008 67.9774 54.9948 69.8268C55.9103 71.4698 57.1254 73.2259 58.6802 74.8517C67.1065 61.8833 81.2781 53.5628 96.7473 52.5617C96.7754 50.825 96.791 48.5926 96.767 46.1763ZM103.432 38.6327C103.674 35.8065 104.218 33.5706 104.883 31.9636C107.51 30.315 109.256 27.3927 109.256 24.0625C109.256 18.9144 105.083 14.741 99.9347 14.741C94.7866 14.741 90.6132 18.9144 90.6132 24.0625C90.6132 27.1246 92.0897 29.8418 94.3695 31.5412C95.1034 33.2901 95.9241 35.7794 96.3675 38.6166C89.3456 36.9989 84.1098 30.7086 84.1098 23.1954C84.1098 14.4556 91.1949 7.3705 99.9347 7.3705C108.675 7.3705 115.76 14.4556 115.76 23.1954C115.76 30.7337 110.489 37.0409 103.432 38.6327ZM25.5793 63.95C25.5793 70.415 30.8203 75.656 37.2854 75.656C43.7505 75.656 48.9915 70.415 48.9915 63.95C48.9915 57.4849 43.7505 52.2439 37.2854 52.2439C30.8203 52.2439 25.5793 57.4849 25.5793 63.95ZM176.675 63.95C176.675 70.415 171.434 75.656 164.969 75.656C158.504 75.656 153.263 70.415 153.263 63.95C153.263 57.4849 158.504 52.2439 164.969 52.2439C171.434 52.2439 176.675 57.4849 176.675 63.95ZM91.1465 170.27C87.9806 175.907 89.9838 183.043 95.6207 186.209C101.258 189.375 108.394 187.372 111.56 181.735C114.725 176.098 112.722 168.962 107.085 165.796C101.449 162.63 94.3124 164.633 91.1465 170.27ZM157.717 141.976C156.769 140.518 155.234 138.804 153.042 137.003C150.358 143.721 152.572 151.637 158.785 155.906C165.989 160.855 175.841 159.027 180.79 151.824C185.739 144.62 183.911 134.768 176.707 129.819C170.515 125.565 162.365 126.318 157.056 131.19C159.645 132.431 162.162 133.164 164.019 133.55C166.711 132.633 169.786 132.955 172.31 134.689C176.553 137.604 177.63 143.407 174.715 147.65C171.799 151.893 165.996 152.97 161.753 150.055C159.008 148.169 157.589 145.075 157.717 141.976ZM46.9562 137.003C44.7643 138.804 43.2294 140.518 42.2813 141.976C42.41 145.075 40.9902 148.169 38.2454 150.055C34.0022 152.97 28.1992 151.893 25.284 147.65C22.3688 143.407 23.4453 137.604 27.6885 134.689C30.2124 132.955 33.2881 132.633 35.9797 133.55C37.8368 133.164 40.3533 132.431 42.9428 131.19C37.6332 126.318 29.4838 125.565 23.2912 129.819C16.0876 134.768 14.2599 144.62 19.209 151.824C24.1581 159.027 34.0097 160.855 41.2133 155.906C47.4266 151.637 49.6405 143.721 46.9562 137.003ZM110.81 82.2425C117.627 84.5907 122.612 88.1106 121.633 94.6585C120.924 99.4518 118.266 101.772 114.739 102.586C119.583 105.108 122.048 108.975 119.7 115.68C116.785 124.007 109.862 124.71 100.656 122.967L98.4213 131.922L93.0221 130.576L95.2273 121.742C93.8279 121.394 92.3978 121.025 90.9246 120.625L88.7117 129.502L83.3188 128.156L85.5531 119.185C85.0492 119.056 84.5421 118.923 84.0314 118.79C83.2642 118.59 82.4888 118.388 81.7041 118.191L74.678 116.44L77.3583 110.259C77.3583 110.259 81.3365 111.317 81.2827 111.239C82.8113 111.617 83.4894 110.621 83.757 109.956L87.2878 95.8011C87.4203 95.8329 87.5501 95.8655 87.6753 95.8969C87.7375 95.9124 87.7986 95.9277 87.8583 95.9425C87.643 95.8564 87.4477 95.8011 87.297 95.7626L89.8159 85.6579C89.882 84.5107 89.4868 83.0636 87.3001 82.5177C87.3846 82.4608 83.3787 81.5428 83.3787 81.5428L84.815 75.7761L92.2609 77.6353L92.2548 77.663C93.3743 77.9413 94.5276 78.2058 95.7025 78.4734L97.9154 69.6065L103.311 70.9521L101.143 79.6452C102.592 79.9758 104.05 80.3095 105.469 80.6632L107.622 72.027L113.021 73.3726L110.81 82.2425Z" fill="#3141A5"/>
</g>
</g>
</svg>
