<svg viewBox="0 0 200 191" fill="none" xmlns="http://www.w3.org/2000/svg">
<g id="Frame 39403">
<path id="Vector 476" d="M186.634 83.5973C194.3 128.383 179.07 152.188 165.452 170.849C175.035 161.266 182.6 158.24 193.696 131.006C197.487 121.699 201.765 108.815 199.243 83.5973C196.722 58.38 177.052 32.1542 161.922 20.5542C146.792 8.95432 110.983 -6.17601 79.7137 1.8935C48.4443 9.96301 26.2529 27.6151 12.6356 51.8236C-0.981694 76.0321 -4.75159 96.7104 7.08783 131.006C17.2665 160.49 49.9572 186.988 76.1831 189.51C102.409 192.031 138.722 182.449 157.383 156.223C176.043 129.997 174.53 103.771 169.991 83.5973C165.452 63.4234 147.8 40.2237 130.148 34.1715C112.496 28.1194 88.7917 25.5977 67.1049 36.6933C45.4181 47.7889 38.8616 65.4409 35.3311 77.0408C31.8007 88.6408 31.8007 113.354 43.4007 126.971C55.0006 140.588 68.6179 150.675 92.8265 149.162C112.193 147.952 122.415 130.165 125.105 121.423C119.557 125.794 105.536 134.637 93.8352 135.04C79.2092 135.545 74.6701 125.458 64.5832 108.815C54.4963 92.1712 60.5484 74.5191 68.6179 65.4409C76.6874 56.3627 106.948 42.7454 121.574 53.841C136.2 64.9366 145.278 81.5799 147.8 94.1885C150.322 106.797 150.322 130.501 127.626 150.675C104.931 170.849 77.6959 166.31 62.5655 161.266C47.4352 156.223 15.1571 132.519 17.1745 88.6408C19.1918 44.7628 52.4786 22.0672 84.7567 13.4934C117.035 4.91951 177.052 27.615 186.634 83.5973Z" fill="#3141A5" fill-opacity="0.4"/>
<g id="Archway">
<path id="Vector" d="M94.0781 92.6034L78.9576 112.629C85.0421 117.263 103.146 133.105 111.667 121.805C120.562 110.024 100.159 97.2463 94.0781 92.6034ZM114.709 65.2721L100.998 83.4354C106.062 87.3006 121.064 100.639 128.824 90.3648C136.915 79.6451 119.774 69.1367 114.709 65.2721ZM148.617 99.0631C146.898 102.537 144.079 105.345 140.598 107.051C137.118 108.756 133.172 109.264 129.373 108.495C131.265 110.411 132.74 112.698 133.705 115.212C134.67 117.726 135.103 120.412 134.978 123.102C134.853 125.792 134.172 128.426 132.978 130.84C131.785 133.254 130.104 135.394 128.042 137.126C115.89 150.488 102.425 146.285 86.6806 135.651L75.2873 150.738L66.3159 143.893L77.5576 129.009C75.2312 127.237 72.865 125.399 70.4433 123.47L59.1541 138.425L50.194 131.585L61.6008 116.466C59.512 114.851 57.4027 113.182 55.232 111.521L43.5577 102.612L53.5412 93.1079C53.5412 93.1079 60.0977 98.2772 60.0608 98.0868C60.4589 98.4317 60.9216 98.694 61.4219 98.8587C61.9223 99.0233 62.4503 99.087 62.9755 99.046C63.5006 99.005 64.0124 98.8601 64.4811 98.6198C64.9498 98.3795 65.3661 98.0485 65.7059 97.646L96.613 56.7035C97.359 55.3629 97.5515 53.784 97.1496 52.3034C96.7478 50.8229 95.7832 49.558 94.4618 48.7787C94.6653 48.7392 87.9433 43.8108 87.9433 43.8108L95.2756 34.0928L107.645 43.5402L107.611 43.5879C109.472 45.0056 111.407 46.4249 113.38 47.8673L124.662 32.9282L133.627 39.7714L122.569 54.4187C125.001 56.1982 127.448 57.9908 129.806 59.7906L140.79 45.2382L149.762 52.0841L138.48 67.03C149.283 76.8963 155.728 87.5087 148.617 99.0631Z" fill="#3141A5"/>
</g>
</g>
</svg>
