<svg viewBox="0 0 200 129" fill="none" xmlns="http://www.w3.org/2000/svg">
<path d="M198.945 0.472656H184.649C184.255 0.472656 183.936 0.792146 183.936 1.18626V62.157C183.936 62.5511 184.255 62.8706 184.649 62.8706H198.945C199.339 62.8706 199.659 62.5511 199.659 62.157V1.18626C199.659 0.792146 199.339 0.472656 198.945 0.472656Z" fill="#3141A5"/>
<path d="M180.841 23.0777V1.18642C180.841 0.788971 180.519 0.466797 180.122 0.466797H131.22C128.46 0.683587 123.656 1.48752 119.635 4.97122C116.032 8.09209 114.616 11.9221 113.938 14.2089C111.817 21.378 109.627 52.6997 102.054 52.6997H96.7956C89.223 52.6997 87.0491 21.378 84.9114 14.2089C84.1376 11.6104 82.6863 7.93251 79.168 4.93508C75.1921 1.54774 70.4679 0.796499 67.7521 0.606807H47.9296C47.5321 0.606807 47.2099 0.928982 47.2099 1.32643V45.8768C47.2099 46.4218 46.7688 46.8644 46.2239 46.8644H40.2065C39.6615 46.8644 39.2189 46.4218 39.2189 45.8768V1.50107C39.2189 1.10362 38.8967 0.782949 38.5008 0.782949H24.0031C23.6057 0.782949 23.2835 1.10512 23.2835 1.50257V45.8768C23.2835 46.4218 22.8424 46.8644 22.2974 46.8644H16.5601C16.0151 46.8644 15.5725 46.4218 15.5725 45.8768V1.25567C15.5725 0.858224 15.2503 0.537555 14.8544 0.537555H0.377817C-0.0196266 0.537555 -0.341797 0.858224 -0.341797 1.25567V62.0774C-0.341797 62.4748 -0.0196266 62.7955 0.377817 62.7955H23.5319C26.9674 62.7955 30.0205 60.6005 31.1165 57.3441L31.7337 55.5044C31.943 56.1111 32.1507 56.7013 32.36 57.308C33.4861 60.5854 36.5603 62.797 40.0258 62.797H62.1442C62.5416 62.797 62.8638 62.4763 62.8638 62.0789C62.8834 46.8298 62.9165 31.5807 62.9346 16.3301C64.5469 16.3301 66.0554 16.8917 67.2462 17.8552C68.4386 18.8021 69.3162 20.151 69.6836 21.7288C71.5233 29.8268 73.6791 44.7251 75.0987 52.385C76.0622 57.5037 79.9885 60.0977 79.9885 60.0977C78.5342 60.0977 76.5696 61.3066 74.6426 62.8843C74.4002 63.0785 74.1669 63.2772 73.941 63.4805C68.5078 68.3763 67.5021 76.1973 67.6316 82.2178V110.858C67.6316 112.136 66.5959 113.172 65.3177 113.172H62.7915V96.0472C62.7915 92.6207 60.0139 89.8431 56.5875 89.8431H15.4506V83.2054C15.4506 82.6604 15.8932 82.2178 16.4382 82.2178H62.793V66.496H0.447069C0.0496249 66.496 -0.272545 66.8182 -0.272545 67.2156V104.848C-0.272545 105.246 0.0496249 105.566 0.447069 105.566H46.0838C46.6288 105.566 47.0699 106.009 47.0699 106.554V112.186C47.0699 112.731 46.6288 113.174 46.0838 113.174H0.447069C0.0496249 113.174 -0.272545 113.496 -0.272545 113.893V128.179C-0.272545 128.576 0.0496249 128.897 0.447069 128.897H68.3302V128.862C76.6915 128.493 83.3517 121.624 83.3517 113.175V82.6589C83.3517 77.5101 86.4334 72.7227 91.278 70.9778C94.1234 69.9526 96.1648 70.0655 96.1648 70.0655H102.686C102.686 70.0655 104.752 69.9511 107.606 70.9838C112.433 72.7287 115.498 77.5026 115.498 82.6348V113.175C115.498 121.859 122.538 128.897 131.22 128.897H180.123C180.519 128.897 180.841 128.575 180.841 128.179V105.341C180.841 101.923 178.631 98.873 175.39 97.8041L173.638 97.2426C174.273 97.0137 174.908 96.8014 175.526 96.5907C178.717 95.4977 180.841 92.4702 180.841 89.0964V67.2171C180.841 66.8197 180.519 66.4975 180.122 66.4975H136.477C136.079 66.4975 135.757 66.8197 135.757 67.2171V81.5027C135.757 81.9001 136.079 82.2208 136.477 82.2208H164.129C164.674 82.2208 165.115 82.6634 165.115 83.2084V88.8585C165.115 89.4035 164.674 89.8461 164.129 89.8461H131.218V78.4887C131.218 71.6703 127.959 65.1681 122.244 61.4511C120.999 60.6276 119.825 60.1007 118.861 60.1007C118.861 60.1007 122.787 57.5067 123.751 52.3881C124.364 49.076 125.118 44.4301 125.925 39.5402H164.129C164.674 39.5402 165.115 39.9828 165.115 40.5278V46.1599C165.115 46.7048 164.674 47.1475 164.129 47.1475H136.477C136.079 47.1475 135.757 47.4696 135.757 47.8671V62.1526C135.757 62.5501 136.079 62.8708 136.477 62.8708H180.122C180.519 62.8708 180.841 62.5486 180.841 62.1511V39.3129C180.841 35.8954 178.631 32.8453 175.39 31.793L173.638 31.2149C174.268 31.0056 174.898 30.7768 175.512 30.5675C178.707 29.473 180.843 26.4605 180.843 23.0822L180.841 23.0777ZM131.22 105.563H164.131C164.676 105.563 165.118 106.006 165.118 106.551V112.183C165.118 112.728 164.676 113.171 164.131 113.171H133.534C132.255 113.171 131.22 112.135 131.22 110.857V105.563ZM164.131 23.8139H128.713C128.766 23.4812 129.693 17.4517 133.41 16.4867C133.797 16.3813 134.27 16.3286 134.831 16.3813C144.596 16.3136 154.36 16.2624 164.125 16.1946C164.673 16.1916 165.118 16.6342 165.118 17.1807V22.8248C165.118 23.3698 164.676 23.8124 164.131 23.8124V23.8139Z" fill="#3141A5"/>
<path d="M198.945 66.4961H184.649C184.255 66.4961 183.936 66.8156 183.936 67.2097V128.18C183.936 128.575 184.255 128.894 184.649 128.894H198.945C199.339 128.894 199.659 128.575 199.659 128.18V67.2097C199.659 66.8156 199.339 66.4961 198.945 66.4961Z" fill="#3141A5"/>
</svg>
