<svg viewBox="0 0 200 182" fill="none" xmlns="http://www.w3.org/2000/svg">
<path id="path2487-3" d="M58.5479 181.075C39.8211 178.883 24.4562 172.528 11.3508 161.555C7.93447 158.694 3.14254 153.808 0.730832 150.725C-0.0665106 149.706 0.159977 149.772 3.95287 151.668C14.9601 157.169 30.1534 160.394 42.3125 159.807C50.8951 159.394 56.7533 158.087 58.5367 156.189C59.9961 154.635 59.4045 153.607 55.079 150.181C42.3435 140.094 34 128.421 29.2349 114.024C23.5368 96.8088 24.3147 78.1256 31.4181 61.5933C33.3665 57.0587 37.3343 49.7363 39.9258 45.8929C46.4256 36.2532 56.9713 26.2431 68.1436 19.1083C73.4549 15.7164 85.8559 9.65105 92.6025 7.14518C101.633 3.79143 111.797 1.39268 121.429 0.342225C127.789 -0.351389 142.518 0.0642955 148.095 1.09484C162.807 3.81335 174.596 8.84878 185.659 17.1391C189.455 19.9842 196.648 26.8607 199.054 29.945L200.357 31.616L195.866 29.4565C184.249 23.8701 170.305 20.9248 158.134 21.4872C143.698 22.154 137.737 25.1618 142.796 29.2266C149.063 34.2631 151.819 36.6939 154.544 39.5903C166.317 52.1024 173.11 67.5437 174.585 85.1464C175.527 96.3884 173.439 108.97 168.865 119.618C162.369 134.737 152.684 147.036 139.329 157.122C133.447 161.564 128.928 164.341 121.652 167.984C109.023 174.308 96.9197 178.272 83.8909 180.354C79.9169 180.989 62.134 181.495 58.5479 181.075ZM106.535 120.954C118.343 118.451 127.937 108.851 130.442 97.0317C131.157 93.6567 131.156 87.6174 130.442 84.2321C129.16 78.18 126.586 73.5488 121.904 68.8674C115.576 62.5393 108.9 59.7772 99.8967 59.7616C91.2184 59.7386 83.2552 63.2848 77.3104 69.7964C71.8855 75.739 69.2571 82.5419 69.2571 90.6415C69.2571 99.3786 72.0843 106.144 78.356 112.416C82.9686 117.028 87.6511 119.656 93.5431 120.937C96.7775 121.64 103.259 121.649 106.54 120.96L106.535 120.954Z" fill="#3141A5"/>
</svg>
