<svg viewBox="0 0 200 200" fill="none" xmlns="http://www.w3.org/2000/svg">
<g id="ww1_logo 1">
<g id="Group">
<path id="Vector" d="M198.998 67.8C198.998 68.6 198.798 69.6 198.798 70.4C198.398 79 196.998 87.4 194.798 95.8C189.598 116.4 180.198 134.8 166.998 151.6C163.198 156.4 158.998 161.2 154.598 165.6C145.598 174.6 135.398 182.4 124.598 189C124.598 189 124.398 189 124.398 189.2C124.998 188.4 125.798 187.6 126.398 187C133.398 180.2 140.198 173 146.398 165.4C152.998 157.2 158.998 148.8 164.398 139.8C171.998 127 177.798 113.4 181.798 99C183.398 92.8 184.598 86.4 185.398 80C186.198 74 186.398 68.2 186.198 62.2C185.998 58 185.598 53.8 184.798 49.6C184.798 49.4 184.598 49 184.398 48.8C179.798 44.6 174.598 41 168.998 38.2C160.398 33.6 151.198 30.4 141.598 28C136.798 26.8 131.998 26 127.198 25.4C125.198 25.2 123.198 25 120.998 24.8C120.998 30.2 120.998 35.6 120.998 40.8C121.998 41 122.798 41 123.798 41.2C134.998 42.8 145.798 45 156.198 49.4C161.198 51.6 165.998 54.2 170.598 57.4C170.798 57.6 170.998 57.8 170.998 58.2C171.598 62.2 171.598 66.2 171.598 70C171.398 74.8 170.798 79.6 169.998 84.2C167.798 95.6 163.798 106.4 158.798 117C153.398 128.2 147.198 138.6 139.798 148.4C135.398 154.4 130.398 160 125.398 165.4C119.798 171.2 113.998 176.8 107.998 182.2C107.798 182.4 107.798 182.4 107.598 182.6C105.198 155.6 102.598 128.6 100.198 101.8C97.7984 128.8 95.1984 155.6 92.7984 182.6C91.5984 181.6 90.5984 180.6 89.3984 179.6C85.7984 176.2 82.1984 172.8 78.5984 169.4C69.5984 160.4 61.1984 150.6 54.1984 139.8C46.1984 127.6 39.3984 114.6 34.5984 100.8C32.3984 94.6 30.7984 88.4 29.5984 82C28.5984 76 27.9984 70.2 28.3984 64.2C28.3984 62.2 28.7984 60.2 28.9984 58.2C28.9984 58 29.1984 57.6 29.3984 57.4C34.5984 53.6 40.1984 50.6 46.1984 48.2C53.5984 45.2 61.1984 43.2 69.1984 41.8C72.1984 41.2 75.3984 40.8 78.3984 40.4C78.7984 40.4 78.7984 40.2 78.7984 40C78.7984 37.4 78.7984 34.8 78.7984 32.2C78.7984 29.8 78.7984 27.6 78.7984 25.2C78.7984 25 78.7984 25 78.7984 24.8C77.5984 24.8 76.5984 25 75.3984 25C69.1984 25.6 62.9984 26.8 56.7984 28.4C48.5984 30.4 40.7984 33.2 33.1984 37C26.7984 40.2 20.7984 44 15.3984 48.8C15.1984 49 14.9984 49.2 14.9984 49.6C14.1984 53.2 13.9984 57 13.7984 60.6C13.3984 65 13.5984 70 13.9984 75C14.5984 82.6 15.9984 90 17.7984 97.4C20.3984 107.4 23.9984 117 28.3984 126.2C34.7984 139.4 42.7984 151.6 51.9984 163.2C56.9984 169.4 62.1984 175.2 67.7984 181C70.3984 183.6 72.9984 186.2 75.5984 188.6C75.5984 188.6 75.5984 188.8 75.7984 188.8C75.5984 188.8 75.5984 188.6 75.3984 188.6C65.1984 182.4 55.7984 175.2 47.1984 166.8C34.7984 154.8 24.5984 141.2 16.7984 126C10.7984 114.4 6.59844 102.2 3.99844 89.4C2.59844 82.4 1.59844 75.6 1.39844 68.4C1.39844 68.2 1.39844 68.2 1.39844 68C1.39844 65.4 1.39844 62.8 1.39844 60.2C1.39844 60 1.39844 59.8 1.39844 59.8C1.59844 56.8 1.79844 53.8 2.19844 50.6C2.59844 48 3.19844 45.4 3.79844 42.6C3.79844 42.2 3.99844 42 4.19844 41.6C6.79844 39 9.79844 36.4 12.7984 34.2C20.5984 28.4 29.1984 23.8 38.1984 20.4C48.3984 16.6 58.9984 14 69.9984 12.6C75.7984 11.8 81.7984 11.4 87.5984 11.2C88.1984 11.2 88.7984 11.2 89.3984 11C89.9984 11 90.5984 11 91.1984 11C91.1984 12.4 91.1984 13.8 91.1984 15.2C91.1984 22.4 91.1984 29.6 91.3984 36.6C91.3984 37.4 91.3984 38.2 91.3984 38.8C96.9984 38.8 102.598 38.8 108.198 38.8V38.6C108.198 34.8 108.198 30.8 108.198 27C108.198 22.8 108.198 18.8 108.198 14.6C108.198 13.4 108.198 12.2 108.198 11C108.798 11 109.398 11 109.998 11C110.198 11 110.398 11 110.598 11C116.598 11 122.398 11.4 128.398 12.2C134.998 13 141.398 14.2 147.798 15.8C157.998 18.4 167.798 22.2 176.998 27.4C183.398 31 189.398 35.4 194.798 40.4C195.798 41.4 196.398 42.2 196.598 43.6C197.598 48.2 198.398 52.8 198.598 57.6C198.598 58.4 198.798 59.2 198.798 60C198.998 62.8 198.998 65.2 198.998 67.8ZM99.9984 100.6C107.198 117.4 114.198 134 121.398 150.6H121.598C121.598 150.4 121.798 150.4 121.798 150.2C131.598 138.6 139.998 126.2 146.398 112.6C150.398 104.4 153.598 95.8 155.798 87C157.598 79.8 158.598 72.6 158.798 65.2C158.798 64.8 158.598 64.6 158.198 64.4C156.398 63.6 154.398 62.6 152.598 61.8C141.598 57 129.998 54.6 117.998 53.4C113.398 53 108.998 52.6 104.398 52.6C99.3984 52.6 94.1984 52.6 89.1984 52.8C81.5984 53.2 73.9984 54 66.5984 55.6C57.9984 57.4 49.5984 60.2 41.5984 64.2C41.1984 64.4 41.1984 64.6 41.1984 65C41.3984 67 41.3984 69 41.5984 70.8C41.9984 76.8 43.1984 82.6 44.5984 88.2C47.3984 99.2 51.7984 109.6 57.1984 119.4C62.7984 129.8 69.5984 139.4 76.9984 148.6C77.5984 149.2 77.9984 149.8 78.5984 150.6C85.7984 134 92.7984 117.4 99.9984 100.6Z" fill="#3141A5"/>
</g>
</g>
</svg>
