<svg viewBox="0 0 200 154" fill="none" xmlns="http://www.w3.org/2000/svg">
<g id="wasabi_web">
<path id="Vector" d="M138.388 72.5873C123.537 45.5021 114.551 19.5228 111.728 3.82674C100.349 10.739 92.4109 14.2004 81.0377 21.1285C85.7044 40.6918 92.9174 59.5583 102.492 77.2451H61.4975C60.4341 75.7244 59.2697 74.2356 58.3073 72.5873C42.2657 45.5021 34.8909 19.0442 32.0675 3.35352C20.6943 10.2657 12.3146 14.2004 0.941406 21.1285C7.36528 48.2107 18.7028 73.8847 34.3911 96.8758C49.5369 119.078 68.8277 138.147 91.204 153.035C100.583 144.076 107.931 137.142 117.311 128.183C110.787 124.248 98.6479 114.013 88.806 105.234H120.065C137.968 128.22 159.683 144.214 172.172 152.471C181.552 143.512 187.804 137.121 197.163 128.161C187.789 122.254 177.021 114.959 167.988 105.234L199.428 105.309V77.2451H141.594C140.436 75.7554 139.366 74.2003 138.388 72.5873Z" fill="#3141A5"/>
<path id="Vector_2" d="M199.999 0.464844H163.992V36.4722H199.999V0.464844Z" fill="#3141A5"/>
</g>
</svg>
