<svg viewBox="0 0 200 120" fill="none" xmlns="http://www.w3.org/2000/svg">
<g id="Vector">
<path fill-rule="evenodd" clip-rule="evenodd" d="M64.0717 43.7145C62.6648 48.9498 61.9014 54.5494 61.9014 60.3751C61.9014 90.3628 76.8545 108.615 100.282 108.615C114.767 108.615 122.822 104.84 130.788 90.9466L141.164 94.0289C132.341 109.418 117.443 119.812 100.282 119.812C72.3698 119.812 50.7042 92.6166 50.7042 60.3751C50.7042 54.0083 51.5385 47.8678 53.0869 42.1061L64.0717 43.7145Z" fill="#3141A5"/>
<path fill-rule="evenodd" clip-rule="evenodd" d="M100.281 12.1357C87.5292 12.1357 79.9072 17.9243 71.861 29.025L62.8433 21.388C71.8336 8.98472 85.1934 0.938477 100.281 0.938477C128.193 0.938477 149.859 28.1335 149.859 60.3751C149.859 65.8799 149.235 71.2155 148.066 76.2832L138.027 77.8895C139.091 73.2799 139.662 64.4119 139.662 59.3751C139.662 29.3874 123.709 12.1357 100.281 12.1357Z" fill="#3141A5"/>
<path fill-rule="evenodd" clip-rule="evenodd" d="M14.6882 40.9555C8.86414 45.6011 6.19718 51.9868 6.19718 59.2483C6.19718 66.2759 9.48475 72.7157 15.8301 77.4871C22.2194 82.2915 31.7978 85.4455 44.2254 85.4455C48.1842 85.4455 51.8601 85.125 55.2381 84.5311L56.3112 90.6347C52.5538 91.2952 48.5175 91.6427 44.2254 91.6427C30.8018 91.6427 19.8168 88.2386 12.1056 82.4401C4.35026 76.6085 0 68.4005 0 59.2483C0 50.3303 3.35518 42.0681 10.8238 36.1107C18.2064 30.2221 29.2664 26.854 44.2254 26.854C59.1843 26.854 70.2444 30.2221 77.6269 36.1107C85.0955 42.0681 88.4507 50.3303 88.4507 59.2483C88.4507 70.2841 82.1461 79.8635 71.2915 85.6452L68.3781 80.1755C77.534 75.2986 82.2535 67.6507 82.2535 59.2483C82.2535 51.9868 79.5866 45.6011 73.7625 40.9555C67.8522 36.2412 58.3489 33.0512 44.2254 33.0512C30.1018 33.0512 20.5985 36.2412 14.6882 40.9555Z" fill="#3141A5"/>
<path fill-rule="evenodd" clip-rule="evenodd" d="M155.775 33.0512C152.352 33.0512 149.194 33.2388 146.289 33.5919L145.541 27.44C148.718 27.0539 152.127 26.854 155.775 26.854C170.734 26.854 181.794 30.2221 189.176 36.1107C196.645 42.0681 200 50.3303 200 59.2483C200 70.2841 193.695 79.8635 182.841 85.6452C178.832 87.7802 174.21 89.3994 169.048 90.4137C168.655 90.4908 168.26 90.5645 167.86 90.6347C164.103 91.2952 160.067 91.6427 155.775 91.6427C142.351 91.6427 131.366 88.2386 123.655 82.4401C115.9 76.6085 111.549 68.4005 111.549 59.2483C111.549 47.7573 117.118 37.5463 129.391 31.8014L132.018 37.4141C122.013 42.0975 117.746 50.0621 117.746 59.2483C117.746 66.2759 121.034 72.7157 127.379 77.4871C133.769 82.2915 143.347 85.4455 155.775 85.4455C159.733 85.4455 163.409 85.125 166.787 84.5311C167.146 84.468 167.501 84.4019 167.853 84.3328C172.481 83.4234 176.515 81.9932 179.927 80.1755C189.083 75.2986 193.803 67.6507 193.803 59.2483C193.803 51.9868 191.136 45.6011 185.312 40.9555C179.402 36.2412 169.898 33.0512 155.775 33.0512Z" fill="#3141A5"/>
</g>
</svg>
